<?xml version="1.0" encoding="UTF-8"?>
<svg id="_レイヤー_2" data-name="レイヤー 2" xmlns="http://www.w3.org/2000/svg" viewBox="0 0 1735 335">
  <defs>
    <style>
      .cls-1, .cls-2 {
        fill: #000;
      }

      .cls-1, .cls-3 {
        stroke: #aaffaf;
        stroke-miterlimit: 10;
        stroke-width: 5px;
      }

      .cls-2 {
        stroke-width: 0px;
      }

      .cls-4 {
        opacity: .9;
      }

      .cls-3 {
        fill: none;
      }
    </style>
  </defs>
  <g id="logo">
    <g id="Bounds-Less">
      <g id="B" class="cls-4">
        <path class="cls-2" d="M2.5,2.5v330h130V2.5H2.5ZM102.5,302.5H32.5v-105h70v105ZM102.5,137.5H32.5V32.5h70v105Z"/>
        <path class="cls-3" d="M2.5,2.5v330h130V2.5H2.5ZM102.5,302.5H32.5v-105h70v105ZM102.5,137.5H32.5V32.5h70v105Z"/>
      </g>
      <path id="o" class="cls-1" d="M162.5,167.5v165h130v-165h-130ZM262.5,302.5h-70v-105h70v105Z"/>
      <polygon id="u" class="cls-1" points="422.5 167.5 422.5 302.5 352.5 302.5 352.5 167.5 322.5 167.5 322.5 332.5 452.5 332.5 452.5 167.5 422.5 167.5"/>
      <polygon id="n" class="cls-1" points="582.5 167.5 582.5 277.5 512.5 167.5 482.5 167.5 482.5 332.5 512.5 332.5 512.5 222.5 582.5 332.5 612.5 332.5 612.5 167.5 582.5 167.5"/>
      <path id="d" class="cls-1" d="M742.5,2.5v165h-100v165h130V2.5h-30ZM742.5,302.5h-70v-105h70v105Z"/>
      <polygon id="s" class="cls-1" points="932.5 197.5 932.5 167.5 802.5 167.5 802.5 259.5 902.5 259.5 902.5 304.5 802.5 304.5 802.5 332.5 932.5 332.5 932.5 227.5 832.5 227.5 832.5 197.5 932.5 197.5"/>
      <rect id="_-" data-name="-" class="cls-1" x="962.5" y="152.5" width="130" height="30"/>
      <g id="L">
        <line class="cls-3" x1="1122.5" y1="332.5" x2="1122.5" y2="2.5"/>
        <line class="cls-3" x1="1252.5" y1="332.5" x2="1122.5" y2="332.5"/>
        <line class="cls-3" x1="1152.5" y1="2.5" x2="1122.5" y2="2.5"/>
        <line class="cls-3" x1="1252.5" y1="332.5" x2="1252.5" y2="302.5"/>
      </g>
      <g id="e">
        <line class="cls-3" x1="1282.5" y1="332.5" x2="1282.5" y2="167.5"/>
        <line class="cls-3" x1="1412.5" y1="332.5" x2="1282.5" y2="332.5"/>
        <line class="cls-3" x1="1412.5" y1="167.5" x2="1282.5" y2="167.5"/>
        <line class="cls-3" x1="1412.5" y1="257.5" x2="1312.5" y2="257.5"/>
        <line class="cls-3" x1="1412.5" y1="302.5" x2="1312.5" y2="302.5"/>
        <line class="cls-3" x1="1312.5" y1="302.5" x2="1312.5" y2="257.5"/>
        <line class="cls-3" x1="1382.5" y1="197.5" x2="1312.5" y2="197.5"/>
        <line class="cls-3" x1="1382.5" y1="227.5" x2="1382.5" y2="197.5"/>
        <line class="cls-3" x1="1312.5" y1="227.5" x2="1312.5" y2="197.5"/>
        <line class="cls-3" x1="1382.5" y1="227.5" x2="1312.5" y2="227.5"/>
      </g>
      <g id="s-2" data-name="s">
        <line class="cls-3" x1="1442.5" y1="257.5" x2="1442.5" y2="167.5"/>
        <line class="cls-3" x1="1572.5" y1="332.5" x2="1442.5" y2="332.5"/>
        <line class="cls-3" x1="1572.5" y1="167.5" x2="1442.5" y2="167.5"/>
        <line class="cls-3" x1="1542.5" y1="257.5" x2="1442.5" y2="257.5"/>
        <line class="cls-3" x1="1542.5" y1="302.5" x2="1442.5" y2="302.5"/>
        <line class="cls-3" x1="1572.5" y1="332.5" x2="1572.5" y2="227.5"/>
        <line class="cls-3" x1="1572.5" y1="197.5" x2="1472.5" y2="197.5"/>
        <line class="cls-3" x1="1572.5" y1="227.5" x2="1472.5" y2="227.5"/>
      </g>
      <g id="s-3" data-name="s">
        <line class="cls-3" x1="1602.5" y1="257.5" x2="1602.5" y2="167.5"/>
        <line class="cls-3" x1="1732.5" y1="332.5" x2="1602.5" y2="332.5"/>
        <line class="cls-3" x1="1732.5" y1="167.5" x2="1602.5" y2="167.5"/>
        <line class="cls-3" x1="1702.5" y1="257.5" x2="1602.5" y2="257.5"/>
        <line class="cls-3" x1="1702.5" y1="302.5" x2="1602.5" y2="302.5"/>
        <line class="cls-3" x1="1732.5" y1="332.5" x2="1732.5" y2="227.5"/>
        <line class="cls-3" x1="1732.5" y1="197.5" x2="1632.5" y2="197.5"/>
        <line class="cls-3" x1="1732.5" y1="227.5" x2="1632.5" y2="227.5"/>
      </g>
    </g>
  </g>
</svg>